<mxfile host="app.diagrams.net" modified="2023-08-01T20:47:11.778Z" agent="Mozilla/5.0 (Macintosh; Intel Mac OS X 10_15_7) AppleWebKit/537.36 (KHTML, like Gecko) Chrome/112.0.0.0 Safari/537.36" etag="DfQj8_5GNYAQdEmX8v1i" version="21.6.5" type="device">
  <diagram name="Page-1" id="kNhSwq7wsO6J637tmKPx">
    <mxGraphModel dx="2646" dy="825" grid="1" gridSize="10" guides="1" tooltips="1" connect="1" arrows="1" fold="1" page="1" pageScale="1" pageWidth="827" pageHeight="1169" math="0" shadow="0">
      <root>
        <mxCell id="0" />
        <mxCell id="1" parent="0" />
        <mxCell id="TtMKmNu47GIyOLjUPErS-3" value="AWS Identity and Access Management" style="sketch=0;outlineConnect=0;fontColor=#232F3E;gradientColor=none;strokeColor=#ffffff;fillColor=#232F3E;dashed=0;verticalLabelPosition=middle;verticalAlign=bottom;align=center;html=1;whiteSpace=wrap;fontSize=10;fontStyle=1;spacing=3;shape=mxgraph.aws4.productIcon;prIcon=mxgraph.aws4.identity_and_access_management;" parent="1" vertex="1">
          <mxGeometry x="220" y="460" width="80" height="120" as="geometry" />
        </mxCell>
        <mxCell id="TtMKmNu47GIyOLjUPErS-8" value="Amazon CloudWatch" style="sketch=0;outlineConnect=0;fontColor=#232F3E;gradientColor=none;strokeColor=#ffffff;fillColor=#232F3E;dashed=0;verticalLabelPosition=middle;verticalAlign=bottom;align=center;html=1;whiteSpace=wrap;fontSize=10;fontStyle=1;spacing=3;shape=mxgraph.aws4.productIcon;prIcon=mxgraph.aws4.cloudwatch;" parent="1" vertex="1">
          <mxGeometry x="320" y="460" width="80" height="110" as="geometry" />
        </mxCell>
        <mxCell id="TtMKmNu47GIyOLjUPErS-28" style="edgeStyle=orthogonalEdgeStyle;rounded=0;orthogonalLoop=1;jettySize=auto;html=1;" parent="1" source="TtMKmNu47GIyOLjUPErS-21" target="TtMKmNu47GIyOLjUPErS-2" edge="1">
          <mxGeometry relative="1" as="geometry">
            <mxPoint x="280" y="740" as="sourcePoint" />
            <Array as="points">
              <mxPoint x="160" y="840" />
            </Array>
          </mxGeometry>
        </mxCell>
        <mxCell id="TtMKmNu47GIyOLjUPErS-29" style="edgeStyle=orthogonalEdgeStyle;rounded=0;orthogonalLoop=1;jettySize=auto;html=1;" parent="1" target="TtMKmNu47GIyOLjUPErS-5" edge="1">
          <mxGeometry relative="1" as="geometry">
            <mxPoint x="320" y="690" as="sourcePoint" />
            <mxPoint x="360" y="690" as="targetPoint" />
          </mxGeometry>
        </mxCell>
        <mxCell id="TtMKmNu47GIyOLjUPErS-19" value="" style="group" parent="1" vertex="1" connectable="0">
          <mxGeometry x="-200" y="730" width="130" height="130" as="geometry" />
        </mxCell>
        <mxCell id="TtMKmNu47GIyOLjUPErS-17" value="" style="sketch=0;html=1;aspect=fixed;strokeColor=none;shadow=0;align=center;fillColor=#2D9C5E;verticalAlign=top;labelPosition=center;verticalLabelPosition=bottom;shape=mxgraph.gcp2.external_data_resource" parent="TtMKmNu47GIyOLjUPErS-19" vertex="1">
          <mxGeometry x="25.5" width="79" height="100" as="geometry" />
        </mxCell>
        <mxCell id="TtMKmNu47GIyOLjUPErS-18" value="external data source" style="text;html=1;align=center;verticalAlign=middle;resizable=0;points=[];autosize=1;strokeColor=none;fillColor=none;" parent="TtMKmNu47GIyOLjUPErS-19" vertex="1">
          <mxGeometry y="100" width="130" height="30" as="geometry" />
        </mxCell>
        <mxCell id="TtMKmNu47GIyOLjUPErS-20" value="" style="group" parent="1" vertex="1" connectable="0">
          <mxGeometry x="-190" y="585" width="130" height="125" as="geometry" />
        </mxCell>
        <mxCell id="TtMKmNu47GIyOLjUPErS-13" value="" style="sketch=0;html=1;aspect=fixed;strokeColor=none;shadow=0;align=center;fillColor=#2D9C5E;verticalAlign=top;labelPosition=center;verticalLabelPosition=bottom;shape=mxgraph.gcp2.external_data_center" parent="TtMKmNu47GIyOLjUPErS-20" vertex="1">
          <mxGeometry x="25" width="77" height="100" as="geometry" />
        </mxCell>
        <mxCell id="TtMKmNu47GIyOLjUPErS-14" value="external datasource&lt;br&gt;" style="text;html=1;align=center;verticalAlign=middle;resizable=0;points=[];autosize=1;strokeColor=none;fillColor=none;" parent="TtMKmNu47GIyOLjUPErS-20" vertex="1">
          <mxGeometry y="95" width="130" height="30" as="geometry" />
        </mxCell>
        <mxCell id="TtMKmNu47GIyOLjUPErS-27" style="edgeStyle=orthogonalEdgeStyle;rounded=0;orthogonalLoop=1;jettySize=auto;html=1;" parent="1" source="TtMKmNu47GIyOLjUPErS-21" edge="1">
          <mxGeometry relative="1" as="geometry">
            <mxPoint x="270" y="690" as="targetPoint" />
          </mxGeometry>
        </mxCell>
        <mxCell id="TtMKmNu47GIyOLjUPErS-21" value="AWS Lambda" style="sketch=0;outlineConnect=0;fontColor=#232F3E;gradientColor=none;strokeColor=#ffffff;fillColor=#232F3E;dashed=0;verticalLabelPosition=middle;verticalAlign=bottom;align=center;html=1;whiteSpace=wrap;fontSize=10;fontStyle=1;spacing=3;shape=mxgraph.aws4.productIcon;prIcon=mxgraph.aws4.lambda;" parent="1" vertex="1">
          <mxGeometry x="120" y="640" width="80" height="100" as="geometry" />
        </mxCell>
        <mxCell id="TtMKmNu47GIyOLjUPErS-23" style="edgeStyle=orthogonalEdgeStyle;rounded=0;orthogonalLoop=1;jettySize=auto;html=1;" parent="1" source="TtMKmNu47GIyOLjUPErS-13" target="TtMKmNu47GIyOLjUPErS-21" edge="1">
          <mxGeometry relative="1" as="geometry" />
        </mxCell>
        <mxCell id="TtMKmNu47GIyOLjUPErS-24" style="edgeStyle=orthogonalEdgeStyle;rounded=0;orthogonalLoop=1;jettySize=auto;html=1;" parent="1" source="Ivw6Amlph15xoAW9FYOj-2" target="TtMKmNu47GIyOLjUPErS-21" edge="1">
          <mxGeometry relative="1" as="geometry" />
        </mxCell>
        <mxCell id="Ivw6Amlph15xoAW9FYOj-3" value="" style="edgeStyle=orthogonalEdgeStyle;rounded=0;orthogonalLoop=1;jettySize=auto;html=1;" edge="1" parent="1" source="TtMKmNu47GIyOLjUPErS-17" target="Ivw6Amlph15xoAW9FYOj-2">
          <mxGeometry relative="1" as="geometry">
            <mxPoint x="25" y="760" as="sourcePoint" />
            <mxPoint x="120" y="690" as="targetPoint" />
          </mxGeometry>
        </mxCell>
        <mxCell id="Ivw6Amlph15xoAW9FYOj-2" value="Event (event-&#xa;based)" style="sketch=0;outlineConnect=0;fontColor=#232F3E;gradientColor=none;strokeColor=#232F3E;fillColor=#ffffff;dashed=0;verticalLabelPosition=bottom;verticalAlign=top;align=center;html=1;fontSize=12;fontStyle=0;aspect=fixed;shape=mxgraph.aws4.resourceIcon;resIcon=mxgraph.aws4.event_event_based;" vertex="1" parent="1">
          <mxGeometry x="50" y="720" width="30" height="30" as="geometry" />
        </mxCell>
        <mxCell id="Ivw6Amlph15xoAW9FYOj-11" value="AWS Step Functions workflow" style="points=[[0,0],[0.25,0],[0.5,0],[0.75,0],[1,0],[1,0.25],[1,0.5],[1,0.75],[1,1],[0.75,1],[0.5,1],[0.25,1],[0,1],[0,0.75],[0,0.5],[0,0.25]];outlineConnect=0;gradientColor=none;html=1;whiteSpace=wrap;fontSize=12;fontStyle=0;container=1;pointerEvents=0;collapsible=0;recursiveResize=0;shape=mxgraph.aws4.group;grIcon=mxgraph.aws4.group_aws_step_functions_workflow;strokeColor=#CD2264;fillColor=none;verticalAlign=top;align=left;spacingLeft=30;fontColor=#CD2264;dashed=0;" vertex="1" parent="1">
          <mxGeometry x="-50" y="580" width="795" height="360" as="geometry" />
        </mxCell>
        <mxCell id="Ivw6Amlph15xoAW9FYOj-13" value="" style="rounded=0;whiteSpace=wrap;html=1;" vertex="1" parent="Ivw6Amlph15xoAW9FYOj-11">
          <mxGeometry x="450" width="300" height="230" as="geometry" />
        </mxCell>
        <mxCell id="TtMKmNu47GIyOLjUPErS-6" value="Endpoints" style="sketch=0;outlineConnect=0;fontColor=#232F3E;gradientColor=none;strokeColor=#232F3E;fillColor=#ffffff;dashed=0;verticalLabelPosition=bottom;verticalAlign=top;align=center;html=1;fontSize=12;fontStyle=0;aspect=fixed;shape=mxgraph.aws4.resourceIcon;resIcon=mxgraph.aws4.endpoints;" parent="Ivw6Amlph15xoAW9FYOj-11" vertex="1">
          <mxGeometry x="620" y="170" width="40" height="40" as="geometry" />
        </mxCell>
        <mxCell id="Ivw6Amlph15xoAW9FYOj-12" value="AWS Lambda" style="sketch=0;outlineConnect=0;fontColor=#232F3E;gradientColor=none;strokeColor=#ffffff;fillColor=#232F3E;dashed=0;verticalLabelPosition=middle;verticalAlign=bottom;align=center;html=1;whiteSpace=wrap;fontSize=10;fontStyle=1;spacing=3;shape=mxgraph.aws4.productIcon;prIcon=mxgraph.aws4.lambda;" vertex="1" parent="Ivw6Amlph15xoAW9FYOj-11">
          <mxGeometry x="590" y="20" width="110" height="130" as="geometry" />
        </mxCell>
        <mxCell id="TtMKmNu47GIyOLjUPErS-5" value="Amazon API Gateway" style="sketch=0;outlineConnect=0;fontColor=#232F3E;gradientColor=none;strokeColor=#ffffff;fillColor=#232F3E;dashed=0;verticalLabelPosition=middle;verticalAlign=bottom;align=center;html=1;whiteSpace=wrap;fontSize=10;fontStyle=1;spacing=3;shape=mxgraph.aws4.productIcon;prIcon=mxgraph.aws4.api_gateway;" parent="Ivw6Amlph15xoAW9FYOj-11" vertex="1">
          <mxGeometry x="460" y="10" width="80" height="110" as="geometry" />
        </mxCell>
        <mxCell id="TtMKmNu47GIyOLjUPErS-7" value="Endpoints" style="sketch=0;outlineConnect=0;fontColor=#232F3E;gradientColor=none;strokeColor=#232F3E;fillColor=#ffffff;dashed=0;verticalLabelPosition=bottom;verticalAlign=top;align=center;html=1;fontSize=12;fontStyle=0;aspect=fixed;shape=mxgraph.aws4.resourceIcon;resIcon=mxgraph.aws4.endpoints;" parent="Ivw6Amlph15xoAW9FYOj-11" vertex="1">
          <mxGeometry x="550" y="170" width="40" height="40" as="geometry" />
        </mxCell>
        <mxCell id="TtMKmNu47GIyOLjUPErS-2" value="Amazon S3" style="sketch=0;outlineConnect=0;fontColor=#232F3E;gradientColor=none;strokeColor=#ffffff;fillColor=#232F3E;dashed=0;verticalLabelPosition=middle;verticalAlign=bottom;align=center;html=1;whiteSpace=wrap;fontSize=10;fontStyle=1;spacing=3;shape=mxgraph.aws4.productIcon;prIcon=mxgraph.aws4.s3;" parent="Ivw6Amlph15xoAW9FYOj-11" vertex="1">
          <mxGeometry x="170" y="250" width="80" height="100" as="geometry" />
        </mxCell>
        <mxCell id="Ivw6Amlph15xoAW9FYOj-4" value="backup" style="text;html=1;strokeColor=none;fillColor=none;align=center;verticalAlign=middle;whiteSpace=wrap;rounded=0;" vertex="1" parent="Ivw6Amlph15xoAW9FYOj-11">
          <mxGeometry x="190" y="180" width="60" height="30" as="geometry" />
        </mxCell>
        <mxCell id="Ivw6Amlph15xoAW9FYOj-17" value="Amazon RDS" style="sketch=0;outlineConnect=0;fontColor=#232F3E;gradientColor=none;strokeColor=#ffffff;fillColor=#232F3E;dashed=0;verticalLabelPosition=middle;verticalAlign=bottom;align=center;html=1;whiteSpace=wrap;fontSize=10;fontStyle=1;spacing=3;shape=mxgraph.aws4.productIcon;prIcon=mxgraph.aws4.rds;" vertex="1" parent="Ivw6Amlph15xoAW9FYOj-11">
          <mxGeometry x="320" y="60" width="80" height="100" as="geometry" />
        </mxCell>
        <mxCell id="TtMKmNu47GIyOLjUPErS-10" value="VPC" style="sketch=0;outlineConnect=0;gradientColor=none;html=1;whiteSpace=wrap;fontSize=12;fontStyle=0;shape=mxgraph.aws4.group;grIcon=mxgraph.aws4.group_vpc;strokeColor=#B6BABF;fillColor=none;verticalAlign=top;align=left;spacingLeft=30;fontColor=#B6BABF;dashed=0;movable=1;resizable=1;rotatable=1;deletable=1;editable=1;locked=0;connectable=1;" parent="Ivw6Amlph15xoAW9FYOj-11" vertex="1">
          <mxGeometry x="-20" y="-30" width="815" height="390" as="geometry" />
        </mxCell>
        <mxCell id="Ivw6Amlph15xoAW9FYOj-5" value="move &amp;amp; store data" style="text;html=1;strokeColor=none;fillColor=none;align=center;verticalAlign=middle;whiteSpace=wrap;rounded=0;" vertex="1" parent="1">
          <mxGeometry x="210" y="705" width="60" height="30" as="geometry" />
        </mxCell>
        <mxCell id="Ivw6Amlph15xoAW9FYOj-16" style="edgeStyle=orthogonalEdgeStyle;rounded=0;orthogonalLoop=1;jettySize=auto;html=1;exitX=0.5;exitY=1;exitDx=0;exitDy=0;" edge="1" parent="1" source="Ivw6Amlph15xoAW9FYOj-11" target="Ivw6Amlph15xoAW9FYOj-11">
          <mxGeometry relative="1" as="geometry" />
        </mxCell>
      </root>
    </mxGraphModel>
  </diagram>
</mxfile>
